<svg viewBox="0 0 1707.2222900390625 400.0000305175781" xmlns="http://www.w3.org/2000/svg"><g><g><g><g><g><line x1="30.78125" y1="376.2070795081583" x2="25.78125" y2="376.2070795081583" style="visibility: inherit;" fill="rgb(0, 0, 0)" stroke="rgb(204, 204, 204)" stroke-width="1px"></line><line x1="30.78125" y1="324.12154658625485" x2="25.78125" y2="324.12154658625485" style="visibility: inherit;" fill="rgb(0, 0, 0)" stroke="rgb(204, 204, 204)" stroke-width="1px"></line><line x1="30.78125" y1="272.0360136643514" x2="25.78125" y2="272.0360136643514" style="visibility: inherit;" fill="rgb(0, 0, 0)" stroke="rgb(204, 204, 204)" stroke-width="1px"></line><line x1="30.78125" y1="219.950480742448" x2="25.78125" y2="219.950480742448" style="visibility: inherit;" fill="rgb(0, 0, 0)" stroke="rgb(204, 204, 204)" stroke-width="1px"></line><line x1="30.78125" y1="167.86494782054456" x2="25.78125" y2="167.86494782054456" style="visibility: inherit;" fill="rgb(0, 0, 0)" stroke="rgb(204, 204, 204)" stroke-width="1px"></line><line x1="30.78125" y1="115.77941489864114" x2="25.78125" y2="115.77941489864114" style="visibility: inherit;" fill="rgb(0, 0, 0)" stroke="rgb(204, 204, 204)" stroke-width="1px"></line><line x1="30.78125" y1="63.69388197673771" x2="25.78125" y2="63.69388197673771" style="visibility: inherit;" fill="rgb(0, 0, 0)" stroke="rgb(204, 204, 204)" stroke-width="1px"></line><line x1="30.78125" y1="11.608349054834274" x2="25.78125" y2="11.608349054834274" style="visibility: inherit;" fill="rgb(0, 0, 0)" stroke="rgb(204, 204, 204)" stroke-width="1px"></line></g><g transform="translate(20.78125, 0)"><text x="0" y="376.2070795081583" dx="0em" dy="0.3em" style="text-anchor: end; visibility: hidden; font-family: Roboto, sans-serif; font-size: 12px; font-weight: 200;" fill="rgb(50, 49, 63)" stroke="none" stroke-width="1px">3</text><text x="0" y="324.12154658625485" dx="0em" dy="0.3em" style="text-anchor: end; visibility: inherit; font-family: Roboto, sans-serif; font-size: 12px; font-weight: 200;" fill="rgb(50, 49, 63)" stroke="none" stroke-width="1px">4</text><text x="0" y="272.0360136643514" dx="0em" dy="0.3em" style="text-anchor: end; visibility: inherit; font-family: Roboto, sans-serif; font-size: 12px; font-weight: 200;" fill="rgb(50, 49, 63)" stroke="none" stroke-width="1px">5</text><text x="0" y="219.950480742448" dx="0em" dy="0.3em" style="text-anchor: end; visibility: inherit; font-family: Roboto, sans-serif; font-size: 12px; font-weight: 200;" fill="rgb(50, 49, 63)" stroke="none" stroke-width="1px">6</text><text x="0" y="167.86494782054456" dx="0em" dy="0.3em" style="text-anchor: end; visibility: inherit; font-family: Roboto, sans-serif; font-size: 12px; font-weight: 200;" fill="rgb(50, 49, 63)" stroke="none" stroke-width="1px">7</text><text x="0" y="115.77941489864114" dx="0em" dy="0.3em" style="text-anchor: end; visibility: inherit; font-family: Roboto, sans-serif; font-size: 12px; font-weight: 200;" fill="rgb(50, 49, 63)" stroke="none" stroke-width="1px">8</text><text x="0" y="63.69388197673771" dx="0em" dy="0.3em" style="text-anchor: end; visibility: inherit; font-family: Roboto, sans-serif; font-size: 12px; font-weight: 200;" fill="rgb(50, 49, 63)" stroke="none" stroke-width="1px">9</text><text x="0" y="11.608349054834274" dx="0em" dy="0.3em" style="text-anchor: end; visibility: inherit; font-family: Roboto, sans-serif; font-size: 12px; font-weight: 200;" fill="rgb(50, 49, 63)" stroke="none" stroke-width="1px">10</text></g><line x1="30.78125" y1="0" x2="30.78125" y2="378" fill="rgb(0, 0, 0)" stroke="rgb(204, 204, 204)" stroke-width="1px"></line></g></g><g transform="translate(30, 0)" clip-path="url(#clip_0)"><clipPath id="clip_0"><rect width="1676" height="377"></rect></clipPath><g><g><g><line x1="33.81014940521134" y1="0" x2="33.81014940521134" y2="378" fill="rgb(0, 0, 0)" stroke="rgb(60, 60, 60)" stroke-width="1px" opacity="0.25"></line><line x1="245.56064824812702" y1="0" x2="245.56064824812702" y2="378" fill="rgb(0, 0, 0)" stroke="rgb(60, 60, 60)" stroke-width="1px" opacity="0.25"></line><line x1="457.31114709104264" y1="0" x2="457.31114709104264" y2="378" fill="rgb(0, 0, 0)" stroke="rgb(60, 60, 60)" stroke-width="1px" opacity="0.25"></line><line x1="669.0616459339584" y1="0" x2="669.0616459339584" y2="378" fill="rgb(0, 0, 0)" stroke="rgb(60, 60, 60)" stroke-width="1px" opacity="0.25"></line><line x1="880.8121447768739" y1="0" x2="880.8121447768739" y2="378" fill="rgb(0, 0, 0)" stroke="rgb(60, 60, 60)" stroke-width="1px" opacity="0.25"></line><line x1="1092.5626436197897" y1="0" x2="1092.5626436197897" y2="378" fill="rgb(0, 0, 0)" stroke="rgb(60, 60, 60)" stroke-width="1px" opacity="0.25"></line><line x1="1304.3131424627054" y1="0" x2="1304.3131424627054" y2="378" fill="rgb(0, 0, 0)" stroke="rgb(60, 60, 60)" stroke-width="1px" opacity="0.25"></line><line x1="1516.063641305621" y1="0" x2="1516.063641305621" y2="378" fill="rgb(0, 0, 0)" stroke="rgb(60, 60, 60)" stroke-width="1px" opacity="0.25"></line></g><g><line x1="0" y1="376.2070795081583" x2="1676.43875" y2="376.2070795081583" fill="rgb(0, 0, 0)" stroke="rgb(60, 60, 60)" stroke-width="1px" opacity="0.25"></line><line x1="0" y1="324.12154658625485" x2="1676.43875" y2="324.12154658625485" fill="rgb(0, 0, 0)" stroke="rgb(60, 60, 60)" stroke-width="1px" opacity="0.25"></line><line x1="0" y1="272.0360136643514" x2="1676.43875" y2="272.0360136643514" fill="rgb(0, 0, 0)" stroke="rgb(60, 60, 60)" stroke-width="1px" opacity="0.25"></line><line x1="0" y1="219.950480742448" x2="1676.43875" y2="219.950480742448" fill="rgb(0, 0, 0)" stroke="rgb(60, 60, 60)" stroke-width="1px" opacity="0.25"></line><line x1="0" y1="167.86494782054456" x2="1676.43875" y2="167.86494782054456" fill="rgb(0, 0, 0)" stroke="rgb(60, 60, 60)" stroke-width="1px" opacity="0.25"></line><line x1="0" y1="115.77941489864114" x2="1676.43875" y2="115.77941489864114" fill="rgb(0, 0, 0)" stroke="rgb(60, 60, 60)" stroke-width="1px" opacity="0.25"></line><line x1="0" y1="63.69388197673771" x2="1676.43875" y2="63.69388197673771" fill="rgb(0, 0, 0)" stroke="rgb(60, 60, 60)" stroke-width="1px" opacity="0.25"></line><line x1="0" y1="11.608349054834274" x2="1676.43875" y2="11.608349054834274" fill="rgb(0, 0, 0)" stroke="rgb(60, 60, 60)" stroke-width="1px" opacity="0.25"></line></g></g></g><g><g><line x1="0" y1="532.4636782738686" x2="1676.43875" y2="532.4636782738686" fill="rgb(0, 0, 0)" stroke="rgb(153, 153, 153)" stroke-width="1.5px"></line></g></g><g><g><line x1="245.56064824812702" y1="0" x2="245.56064824812702" y2="378" fill="rgb(0, 0, 0)" stroke="rgb(153, 153, 153)" stroke-width="1.5px"></line></g></g><g><g><g><g><g><path style="fill: none;" stroke="rgb(0, 119, 187)" stroke-width="2px" d="M245.56064824812702,316.88245545131895L266.7356981324186,322.9215550698294L287.9107480167101,328.2007006272556L309.0857979010017,330.0927437127149L330.26084778529327,332.14734049622456L351.43589766958485,334.6329467336636L372.61094755387643,336.5653488350635L393.785997438168,337.856253691705L414.9610473224596,339.27401003998773L436.1360972067511,340.80602586693834L457.31114709104264,341.278611316366L478.4861969753342,340.48789747605554L499.6612468596258,332.5482110788652L520.8362967439174,301.0350221612458L542.0113466282089,338.1310675448643L563.1863965125006,334.58456558716966L584.3614463967921,329.6837764905686L605.5364962810837,11.70223033499174L626.7115461653752,332.49010651406934L647.8865960496668,329.48344675359766L669.0616459339584,329.0246827148599L690.2366958182498,320.0569342091515L711.4117457025415,332.71215561069573L732.586795586833,220.18125980467636L753.7618454711246,328.35687139170807L774.9368953554161,325.84233084437926L796.1119452397078,328.62547616549193L817.2869951239993,317.09530269231095L838.4620450082909,322.49342662873033L859.6370948925825,305.65127398638555L880.8121447768739,331.50884844588376L901.9871946611656,334.96733049435136L923.162244545457,-752.5960007161186L944.3372944297488,333.44996809472696L965.5123443140402,336.71703664420687L986.6873941983318,336.10463514540186L1007.8624440826234,317.3333836318849L1029.037493966915,61.98608711266684L1050.2125438512064,328.095655422381L1071.3875937354983,270.06925051768746L1092.5626436197897,319.22146532470254L1113.7376935040813,316.7348035437698L1134.9127433883727,330.43395746071576L1156.0877932726644,332.533557651539L1177.262843156956,317.3317692712472L1198.4378930412474,287.59055226212377L1219.612942925539,-269.3342131565849L1240.7879928098305,-957.9313484616732L1261.9630426941224,325.3633872976712L1283.1380925784138,318.48482014759395" fill="none"></path></g><g><path style="fill: none;" stroke="rgb(255, 112, 67)" stroke-width="2px" d="M245.56064824812702,308.86807382924144L266.7356981324186,322.71528945297547L287.9107480167101,327.27488963789324L309.0857979010017,331.2577781122563L330.26084778529327,334.4788001290876L351.43589766958485,336.8850543321077L372.61094755387643,339.09686500540494L393.785997438168,341.11751054288936L414.9610473224596,342.8957287852371L436.1360972067511,344.5105985673743L457.31114709104264,345.68653611029913L478.4861969753342,345.9556500285918L499.6612468596258,344.03127005774496L520.8362967439174,334.91856438493625L542.0113466282089,320.50984929511753L563.1863965125006,298.4243278107081L584.3614463967921,343.89768792406056L605.5364962810837,261.2474153773032L626.7115461653752,275.2738498681315L647.8865960496668,306.5990278622609L669.0616459339584,286.68777695724447L690.2366958182498,237.42802089544585L711.4117457025415,333.5371932417939L732.586795586833,333.6324777738902L753.7618454711246,256.7728050708772L774.9368953554161,271.94675193924934L796.1119452397078,335.32407935894975L817.2869951239993,276.8527194080496L838.4620450082909,261.05128297799007L859.6370948925825,192.65444886402906L880.8121447768739,328.1987013036967L901.9871946611656,339.8004902983946L923.162244545457,251.534353819678L944.3372944297488,301.12599759225554L965.5123443140402,340.0353052622171L986.6873941983318,342.35294348439015L1007.8624440826234,298.40711624267925L1029.037493966915,233.11983875260063L1050.2125438512064,237.74324343718092L1071.3875937354983,275.02814417908445L1092.5626436197897,240.88757090556606L1113.7376935040813,215.67317014225776L1134.9127433883727,330.97617152626015L1156.0877932726644,337.98387510918883L1177.262843156956,286.62918808425735L1198.4378930412474,284.78998426428353L1219.612942925539,193.29885195793534L1240.7879928098305,154.54058635286208L1261.9630426941224,282.1989602772074L1283.1380925784138,330.7966546233559" fill="none"></path></g></g></g></g></g></g><g transform="translate(30, 378)" clip-path="url(#clip_1)"><clipPath id="clip_1"><rect width="1676" height="21"></rect></clipPath><g><g><line x1="33.81014940521134" y1="0" x2="33.81014940521134" y2="5" style="visibility: inherit;" fill="rgb(0, 0, 0)" stroke="rgb(204, 204, 204)" stroke-width="1px"></line><line x1="245.56064824812702" y1="0" x2="245.56064824812702" y2="5" style="visibility: inherit;" fill="rgb(0, 0, 0)" stroke="rgb(204, 204, 204)" stroke-width="1px"></line><line x1="457.31114709104264" y1="0" x2="457.31114709104264" y2="5" style="visibility: inherit;" fill="rgb(0, 0, 0)" stroke="rgb(204, 204, 204)" stroke-width="1px"></line><line x1="669.0616459339584" y1="0" x2="669.0616459339584" y2="5" style="visibility: inherit;" fill="rgb(0, 0, 0)" stroke="rgb(204, 204, 204)" stroke-width="1px"></line><line x1="880.8121447768739" y1="0" x2="880.8121447768739" y2="5" style="visibility: inherit;" fill="rgb(0, 0, 0)" stroke="rgb(204, 204, 204)" stroke-width="1px"></line><line x1="1092.5626436197897" y1="0" x2="1092.5626436197897" y2="5" style="visibility: inherit;" fill="rgb(0, 0, 0)" stroke="rgb(204, 204, 204)" stroke-width="1px"></line><line x1="1304.3131424627054" y1="0" x2="1304.3131424627054" y2="5" style="visibility: inherit;" fill="rgb(0, 0, 0)" stroke="rgb(204, 204, 204)" stroke-width="1px"></line><line x1="1516.063641305621" y1="0" x2="1516.063641305621" y2="5" style="visibility: inherit;" fill="rgb(0, 0, 0)" stroke="rgb(204, 204, 204)" stroke-width="1px"></line></g><g transform="translate(0, 8)"><text x="33.81014940521134" y="0" dx="0em" dy="0.95em" style="text-anchor: middle; visibility: inherit; font-family: Roboto, sans-serif; font-size: 12px; font-weight: 200;" fill="rgb(50, 49, 63)" stroke="none" stroke-width="1px">-10</text><text x="245.56064824812702" y="0" dx="0em" dy="0.95em" style="text-anchor: middle; visibility: inherit; font-family: Roboto, sans-serif; font-size: 12px; font-weight: 200;" fill="rgb(50, 49, 63)" stroke="none" stroke-width="1px">0</text><text x="457.31114709104264" y="0" dx="0em" dy="0.95em" style="text-anchor: middle; visibility: inherit; font-family: Roboto, sans-serif; font-size: 12px; font-weight: 200;" fill="rgb(50, 49, 63)" stroke="none" stroke-width="1px">10</text><text x="669.0616459339584" y="0" dx="0em" dy="0.95em" style="text-anchor: middle; visibility: inherit; font-family: Roboto, sans-serif; font-size: 12px; font-weight: 200;" fill="rgb(50, 49, 63)" stroke="none" stroke-width="1px">20</text><text x="880.8121447768739" y="0" dx="0em" dy="0.95em" style="text-anchor: middle; visibility: inherit; font-family: Roboto, sans-serif; font-size: 12px; font-weight: 200;" fill="rgb(50, 49, 63)" stroke="none" stroke-width="1px">30</text><text x="1092.5626436197897" y="0" dx="0em" dy="0.95em" style="text-anchor: middle; visibility: inherit; font-family: Roboto, sans-serif; font-size: 12px; font-weight: 200;" fill="rgb(50, 49, 63)" stroke="none" stroke-width="1px">40</text><text x="1304.3131424627054" y="0" dx="0em" dy="0.95em" style="text-anchor: middle; visibility: inherit; font-family: Roboto, sans-serif; font-size: 12px; font-weight: 200;" fill="rgb(50, 49, 63)" stroke="none" stroke-width="1px">50</text><text x="1516.063641305621" y="0" dx="0em" dy="0.95em" style="text-anchor: middle; visibility: inherit; font-family: Roboto, sans-serif; font-size: 12px; font-weight: 200;" fill="rgb(50, 49, 63)" stroke="none" stroke-width="1px">60</text></g><line x1="0" y1="0" x2="1676.43875" y2="0" fill="rgb(0, 0, 0)" stroke="rgb(204, 204, 204)" stroke-width="1px"></line></g></g></g></g></svg>