<svg viewBox="0 0 330.0000305175781 200.00001525878906" xmlns="http://www.w3.org/2000/svg"><g><g><g><g><g><line x1="40" y1="178" x2="35" y2="178" style="visibility: inherit;" fill="rgb(0, 0, 0)" stroke="rgb(204, 204, 204)" stroke-width="1px"></line><line x1="40" y1="161.8181818181818" x2="35" y2="161.8181818181818" style="visibility: inherit;" fill="rgb(0, 0, 0)" stroke="rgb(204, 204, 204)" stroke-width="1px"></line><line x1="40" y1="145.63636363636363" x2="35" y2="145.63636363636363" style="visibility: inherit;" fill="rgb(0, 0, 0)" stroke="rgb(204, 204, 204)" stroke-width="1px"></line><line x1="40" y1="129.45454545454547" x2="35" y2="129.45454545454547" style="visibility: inherit;" fill="rgb(0, 0, 0)" stroke="rgb(204, 204, 204)" stroke-width="1px"></line><line x1="40" y1="113.27272727272727" x2="35" y2="113.27272727272727" style="visibility: inherit;" fill="rgb(0, 0, 0)" stroke="rgb(204, 204, 204)" stroke-width="1px"></line><line x1="40" y1="97.09090909090908" x2="35" y2="97.09090909090908" style="visibility: inherit;" fill="rgb(0, 0, 0)" stroke="rgb(204, 204, 204)" stroke-width="1px"></line><line x1="40" y1="80.90909090909092" x2="35" y2="80.90909090909092" style="visibility: inherit;" fill="rgb(0, 0, 0)" stroke="rgb(204, 204, 204)" stroke-width="1px"></line><line x1="40" y1="64.72727272727273" x2="35" y2="64.72727272727273" style="visibility: inherit;" fill="rgb(0, 0, 0)" stroke="rgb(204, 204, 204)" stroke-width="1px"></line><line x1="40" y1="48.54545454545454" x2="35" y2="48.54545454545454" style="visibility: inherit;" fill="rgb(0, 0, 0)" stroke="rgb(204, 204, 204)" stroke-width="1px"></line><line x1="40" y1="32.36363636363635" x2="35" y2="32.36363636363635" style="visibility: inherit;" fill="rgb(0, 0, 0)" stroke="rgb(204, 204, 204)" stroke-width="1px"></line><line x1="40" y1="16.181818181818187" x2="35" y2="16.181818181818187" style="visibility: inherit;" fill="rgb(0, 0, 0)" stroke="rgb(204, 204, 204)" stroke-width="1px"></line><line x1="40" y1="0" x2="35" y2="0" style="visibility: inherit;" fill="rgb(0, 0, 0)" stroke="rgb(204, 204, 204)" stroke-width="1px"></line></g><g transform="translate(30, 0)"><text x="0" y="178" dx="0em" dy="0.3em" style="text-anchor: end; visibility: hidden; font-family: Roboto, sans-serif; font-size: 12px; font-weight: 200;" fill="rgb(50, 49, 63)" stroke="none" stroke-width="1px">2.5</text><text x="0" y="161.8181818181818" dx="0em" dy="0.3em" style="text-anchor: end; visibility: inherit; font-family: Roboto, sans-serif; font-size: 12px; font-weight: 200;" fill="rgb(50, 49, 63)" stroke="none" stroke-width="1px">3</text><text x="0" y="145.63636363636363" dx="0em" dy="0.3em" style="text-anchor: end; visibility: hidden; font-family: Roboto, sans-serif; font-size: 12px; font-weight: 200;" fill="rgb(50, 49, 63)" stroke="none" stroke-width="1px">3.5</text><text x="0" y="129.45454545454547" dx="0em" dy="0.3em" style="text-anchor: end; visibility: inherit; font-family: Roboto, sans-serif; font-size: 12px; font-weight: 200;" fill="rgb(50, 49, 63)" stroke="none" stroke-width="1px">4</text><text x="0" y="113.27272727272727" dx="0em" dy="0.3em" style="text-anchor: end; visibility: hidden; font-family: Roboto, sans-serif; font-size: 12px; font-weight: 200;" fill="rgb(50, 49, 63)" stroke="none" stroke-width="1px">4.5</text><text x="0" y="97.09090909090908" dx="0em" dy="0.3em" style="text-anchor: end; visibility: inherit; font-family: Roboto, sans-serif; font-size: 12px; font-weight: 200;" fill="rgb(50, 49, 63)" stroke="none" stroke-width="1px">5</text><text x="0" y="80.90909090909092" dx="0em" dy="0.3em" style="text-anchor: end; visibility: hidden; font-family: Roboto, sans-serif; font-size: 12px; font-weight: 200;" fill="rgb(50, 49, 63)" stroke="none" stroke-width="1px">5.5</text><text x="0" y="64.72727272727273" dx="0em" dy="0.3em" style="text-anchor: end; visibility: inherit; font-family: Roboto, sans-serif; font-size: 12px; font-weight: 200;" fill="rgb(50, 49, 63)" stroke="none" stroke-width="1px">6</text><text x="0" y="48.54545454545454" dx="0em" dy="0.3em" style="text-anchor: end; visibility: hidden; font-family: Roboto, sans-serif; font-size: 12px; font-weight: 200;" fill="rgb(50, 49, 63)" stroke="none" stroke-width="1px">6.5</text><text x="0" y="32.36363636363635" dx="0em" dy="0.3em" style="text-anchor: end; visibility: inherit; font-family: Roboto, sans-serif; font-size: 12px; font-weight: 200;" fill="rgb(50, 49, 63)" stroke="none" stroke-width="1px">7</text><text x="0" y="16.181818181818187" dx="0em" dy="0.3em" style="text-anchor: end; visibility: hidden; font-family: Roboto, sans-serif; font-size: 12px; font-weight: 200;" fill="rgb(50, 49, 63)" stroke="none" stroke-width="1px">7.5</text><text x="0" y="0" dx="0em" dy="0.3em" style="text-anchor: end; visibility: hidden; font-family: Roboto, sans-serif; font-size: 12px; font-weight: 200;" fill="rgb(50, 49, 63)" stroke="none" stroke-width="1px">8</text></g><line x1="40" y1="0" x2="40" y2="178" fill="rgb(0, 0, 0)" stroke="rgb(204, 204, 204)" stroke-width="1px"></line></g></g><g transform="translate(40, 0)" clip-path="url(#clip_0)"><clipPath id="clip_0"><rect width="290" height="177"></rect></clipPath><g><g><g><line x1="0" y1="0" x2="0" y2="178" fill="rgb(0, 0, 0)" stroke="rgb(60, 60, 60)" stroke-width="1px" opacity="0.25"></line><line x1="24.166666666666664" y1="0" x2="24.166666666666664" y2="178" fill="rgb(0, 0, 0)" stroke="rgb(60, 60, 60)" stroke-width="1px" opacity="0.25"></line><line x1="48.33333333333333" y1="0" x2="48.33333333333333" y2="178" fill="rgb(0, 0, 0)" stroke="rgb(60, 60, 60)" stroke-width="1px" opacity="0.25"></line><line x1="72.5" y1="0" x2="72.5" y2="178" fill="rgb(0, 0, 0)" stroke="rgb(60, 60, 60)" stroke-width="1px" opacity="0.25"></line><line x1="96.66666666666666" y1="0" x2="96.66666666666666" y2="178" fill="rgb(0, 0, 0)" stroke="rgb(60, 60, 60)" stroke-width="1px" opacity="0.25"></line><line x1="120.83333333333334" y1="0" x2="120.83333333333334" y2="178" fill="rgb(0, 0, 0)" stroke="rgb(60, 60, 60)" stroke-width="1px" opacity="0.25"></line><line x1="145" y1="0" x2="145" y2="178" fill="rgb(0, 0, 0)" stroke="rgb(60, 60, 60)" stroke-width="1px" opacity="0.25"></line><line x1="169.16666666666669" y1="0" x2="169.16666666666669" y2="178" fill="rgb(0, 0, 0)" stroke="rgb(60, 60, 60)" stroke-width="1px" opacity="0.25"></line><line x1="193.33333333333331" y1="0" x2="193.33333333333331" y2="178" fill="rgb(0, 0, 0)" stroke="rgb(60, 60, 60)" stroke-width="1px" opacity="0.25"></line><line x1="217.5" y1="0" x2="217.5" y2="178" fill="rgb(0, 0, 0)" stroke="rgb(60, 60, 60)" stroke-width="1px" opacity="0.25"></line><line x1="241.66666666666669" y1="0" x2="241.66666666666669" y2="178" fill="rgb(0, 0, 0)" stroke="rgb(60, 60, 60)" stroke-width="1px" opacity="0.25"></line><line x1="265.8333333333333" y1="0" x2="265.8333333333333" y2="178" fill="rgb(0, 0, 0)" stroke="rgb(60, 60, 60)" stroke-width="1px" opacity="0.25"></line><line x1="290" y1="0" x2="290" y2="178" fill="rgb(0, 0, 0)" stroke="rgb(60, 60, 60)" stroke-width="1px" opacity="0.25"></line></g><g><line x1="0" y1="178" x2="290" y2="178" fill="rgb(0, 0, 0)" stroke="rgb(60, 60, 60)" stroke-width="1px" opacity="0.25"></line><line x1="0" y1="161.8181818181818" x2="290" y2="161.8181818181818" fill="rgb(0, 0, 0)" stroke="rgb(60, 60, 60)" stroke-width="1px" opacity="0.25"></line><line x1="0" y1="145.63636363636363" x2="290" y2="145.63636363636363" fill="rgb(0, 0, 0)" stroke="rgb(60, 60, 60)" stroke-width="1px" opacity="0.25"></line><line x1="0" y1="129.45454545454547" x2="290" y2="129.45454545454547" fill="rgb(0, 0, 0)" stroke="rgb(60, 60, 60)" stroke-width="1px" opacity="0.25"></line><line x1="0" y1="113.27272727272727" x2="290" y2="113.27272727272727" fill="rgb(0, 0, 0)" stroke="rgb(60, 60, 60)" stroke-width="1px" opacity="0.25"></line><line x1="0" y1="97.09090909090908" x2="290" y2="97.09090909090908" fill="rgb(0, 0, 0)" stroke="rgb(60, 60, 60)" stroke-width="1px" opacity="0.25"></line><line x1="0" y1="80.90909090909092" x2="290" y2="80.90909090909092" fill="rgb(0, 0, 0)" stroke="rgb(60, 60, 60)" stroke-width="1px" opacity="0.25"></line><line x1="0" y1="64.72727272727273" x2="290" y2="64.72727272727273" fill="rgb(0, 0, 0)" stroke="rgb(60, 60, 60)" stroke-width="1px" opacity="0.25"></line><line x1="0" y1="48.54545454545454" x2="290" y2="48.54545454545454" fill="rgb(0, 0, 0)" stroke="rgb(60, 60, 60)" stroke-width="1px" opacity="0.25"></line><line x1="0" y1="32.36363636363635" x2="290" y2="32.36363636363635" fill="rgb(0, 0, 0)" stroke="rgb(60, 60, 60)" stroke-width="1px" opacity="0.25"></line><line x1="0" y1="16.181818181818187" x2="290" y2="16.181818181818187" fill="rgb(0, 0, 0)" stroke="rgb(60, 60, 60)" stroke-width="1px" opacity="0.25"></line><line x1="0" y1="0" x2="290" y2="0" fill="rgb(0, 0, 0)" stroke="rgb(60, 60, 60)" stroke-width="1px" opacity="0.25"></line></g></g></g><g><g><line x1="0" y1="258.90909090909093" x2="290" y2="258.90909090909093" fill="rgb(0, 0, 0)" stroke="rgb(153, 153, 153)" stroke-width="1.5px"></line></g></g><g><g><line x1="24.166666666666664" y1="0" x2="24.166666666666664" y2="178" fill="rgb(0, 0, 0)" stroke="rgb(153, 153, 153)" stroke-width="1.5px"></line></g></g><g><g><g><g><g><path stroke="rgb(0, 119, 187)" stroke-width="2px" d="M24.166666666666664,124.95649580522017L29,128.70892403342506L33.833333333333336,131.98915056748822L38.666666666666664,133.16478209062055L43.5,134.44141726060346L48.33333333333333,135.98586255853826L53.166666666666664,137.18657138130882L58,137.98868231339887L62.833333333333336,138.86961312727496L67.66666666666667,139.82153970544988L72.5,140.11518331007525L77.33333333333333,139.62386885556307L82.16666666666667,134.69050043279475L87,115.1096047488126L91.83333333333333,138.15943943370473L96.66666666666666,135.95580066334117L101.5,132.91066802631724L106.33333333333333,-64.66893907026811L111.16666666666667,134.6543968374079L116,132.78619202700528L120.83333333333334,132.50113643299449L125.66666666666667,126.92897588556464L130.5,134.79236828197133L135.33333333333334,64.87066858465022L140.16666666666666,132.0861881429499L145,130.52376435019752L149.83333333333334,132.2530872171575L154.66666666666666,125.0887496254661L159.5,128.44290403886274L164.33333333333334,117.97793856534092L169.16666666666669,134.04468666423452L174,136.19363377311012L178.83333333333334,-539.5699074485086L183.66666666666666,135.2508121837269L188.5,137.28082344748756L193.33333333333331,136.90030436082318L198.16666666666666,125.23668254505503L203,-33.424784226851024L207.83333333333334,131.92388014359906L212.66666666666666,95.86884984103115L217.5,126.40985263477671L222.33333333333334,124.86475146900523L227.16666666666666,133.37679715590045L232,134.68139544400302L236.83333333333334,125.23567945306952L241.66666666666669,106.7558083967729L246.5,-239.2925005826083L251.33333333333334,-667.1561709317294L256.1666666666667,130.22617010636762L261,125.9521340456876" style="fill: none;" fill="none"></path></g><g><path stroke="rgb(255, 112, 67)" stroke-width="2px" d="M24.166666666666664,119.97671508789062L29,128.58075974204323L33.833333333333336,131.41389274597168L38.666666666666664,133.88868271220815L43.5,135.89008270610464L48.33333333333333,137.38522217490456L53.166666666666664,138.7595430720936L58,140.01508244601163L62.833333333333336,141.11998826807195L67.66666666666667,142.12339661338112L72.5,142.85407196391714L77.33333333333333,143.02128739790484L82.16666666666667,141.82556317069313L87,136.16333267905495L91.83333333333333,127.21039720015092L96.66666666666666,113.4874352541837L101.5,141.7425611669367L106.33333333333333,90.38735337690873L111.16666666666667,99.10275667363946L116,118.56683072176845L120.83333333333334,106.19486392628062L125.66666666666667,75.58703977411443L130.5,135.30501001531428L135.33333333333334,135.36421559073707L140.16666666666666,87.6070293079723L145,97.03544582020152L149.83333333333334,136.41530166972768L154.66666666666666,100.08379606767134L159.5,90.26548541675913L164.33333333333334,47.766731088811696L169.16666666666669,131.98790827664462L174,139.19674457203257L178.83333333333334,84.35208840803666L183.66666666666666,115.16613284024326L188.5,139.34264815937388L193.33333333333331,140.78272559426048L198.16666666666666,113.47674075039951L203,72.91012677279384L207.83333333333334,75.78290505842729L212.66666666666666,98.95008607344194L217.5,77.73665046691895L222.33333333333334,62.069541931152344L227.16666666666666,133.71370488947088L232,138.06798059290105L236.83333333333334,106.15845940329812L241.66666666666669,105.01565985246138L246.5,48.16713454506614L251.33333333333334,24.084470055320043L256.1666666666667,103.40571264787154L261,133.60216106068003" style="fill: none;" fill="none"></path></g></g></g></g></g></g><g transform="translate(40, 178)" clip-path="url(#clip_1)"><clipPath id="clip_1"><rect width="290" height="21"></rect></clipPath><g><g><line x1="0" y1="0" x2="0" y2="5" style="visibility: inherit;" fill="rgb(0, 0, 0)" stroke="rgb(204, 204, 204)" stroke-width="1px"></line><line x1="24.166666666666664" y1="0" x2="24.166666666666664" y2="5" style="visibility: inherit;" fill="rgb(0, 0, 0)" stroke="rgb(204, 204, 204)" stroke-width="1px"></line><line x1="48.33333333333333" y1="0" x2="48.33333333333333" y2="5" style="visibility: inherit;" fill="rgb(0, 0, 0)" stroke="rgb(204, 204, 204)" stroke-width="1px"></line><line x1="72.5" y1="0" x2="72.5" y2="5" style="visibility: inherit;" fill="rgb(0, 0, 0)" stroke="rgb(204, 204, 204)" stroke-width="1px"></line><line x1="96.66666666666666" y1="0" x2="96.66666666666666" y2="5" style="visibility: inherit;" fill="rgb(0, 0, 0)" stroke="rgb(204, 204, 204)" stroke-width="1px"></line><line x1="120.83333333333334" y1="0" x2="120.83333333333334" y2="5" style="visibility: inherit;" fill="rgb(0, 0, 0)" stroke="rgb(204, 204, 204)" stroke-width="1px"></line><line x1="145" y1="0" x2="145" y2="5" style="visibility: inherit;" fill="rgb(0, 0, 0)" stroke="rgb(204, 204, 204)" stroke-width="1px"></line><line x1="169.16666666666669" y1="0" x2="169.16666666666669" y2="5" style="visibility: inherit;" fill="rgb(0, 0, 0)" stroke="rgb(204, 204, 204)" stroke-width="1px"></line><line x1="193.33333333333331" y1="0" x2="193.33333333333331" y2="5" style="visibility: inherit;" fill="rgb(0, 0, 0)" stroke="rgb(204, 204, 204)" stroke-width="1px"></line><line x1="217.5" y1="0" x2="217.5" y2="5" style="visibility: inherit;" fill="rgb(0, 0, 0)" stroke="rgb(204, 204, 204)" stroke-width="1px"></line><line x1="241.66666666666669" y1="0" x2="241.66666666666669" y2="5" style="visibility: inherit;" fill="rgb(0, 0, 0)" stroke="rgb(204, 204, 204)" stroke-width="1px"></line><line x1="265.8333333333333" y1="0" x2="265.8333333333333" y2="5" style="visibility: inherit;" fill="rgb(0, 0, 0)" stroke="rgb(204, 204, 204)" stroke-width="1px"></line><line x1="290" y1="0" x2="290" y2="5" style="visibility: inherit;" fill="rgb(0, 0, 0)" stroke="rgb(204, 204, 204)" stroke-width="1px"></line></g><g transform="translate(0, 8)"><text x="0" y="0" dx="0em" dy="0.95em" style="text-anchor: middle; visibility: hidden; font-family: Roboto, sans-serif; font-size: 12px; font-weight: 200;" fill="rgb(50, 49, 63)" stroke="none" stroke-width="1px">-5</text><text x="24.166666666666664" y="0" dx="0em" dy="0.95em" style="text-anchor: middle; visibility: inherit; font-family: Roboto, sans-serif; font-size: 12px; font-weight: 200;" fill="rgb(50, 49, 63)" stroke="none" stroke-width="1px">0</text><text x="48.33333333333333" y="0" dx="0em" dy="0.95em" style="text-anchor: middle; visibility: inherit; font-family: Roboto, sans-serif; font-size: 12px; font-weight: 200;" fill="rgb(50, 49, 63)" stroke="none" stroke-width="1px">5</text><text x="72.5" y="0" dx="0em" dy="0.95em" style="text-anchor: middle; visibility: inherit; font-family: Roboto, sans-serif; font-size: 12px; font-weight: 200;" fill="rgb(50, 49, 63)" stroke="none" stroke-width="1px">10</text><text x="96.66666666666666" y="0" dx="0em" dy="0.95em" style="text-anchor: middle; visibility: inherit; font-family: Roboto, sans-serif; font-size: 12px; font-weight: 200;" fill="rgb(50, 49, 63)" stroke="none" stroke-width="1px">15</text><text x="120.83333333333334" y="0" dx="0em" dy="0.95em" style="text-anchor: middle; visibility: inherit; font-family: Roboto, sans-serif; font-size: 12px; font-weight: 200;" fill="rgb(50, 49, 63)" stroke="none" stroke-width="1px">20</text><text x="145" y="0" dx="0em" dy="0.95em" style="text-anchor: middle; visibility: inherit; font-family: Roboto, sans-serif; font-size: 12px; font-weight: 200;" fill="rgb(50, 49, 63)" stroke="none" stroke-width="1px">25</text><text x="169.16666666666669" y="0" dx="0em" dy="0.95em" style="text-anchor: middle; visibility: inherit; font-family: Roboto, sans-serif; font-size: 12px; font-weight: 200;" fill="rgb(50, 49, 63)" stroke="none" stroke-width="1px">30</text><text x="193.33333333333331" y="0" dx="0em" dy="0.95em" style="text-anchor: middle; visibility: inherit; font-family: Roboto, sans-serif; font-size: 12px; font-weight: 200;" fill="rgb(50, 49, 63)" stroke="none" stroke-width="1px">35</text><text x="217.5" y="0" dx="0em" dy="0.95em" style="text-anchor: middle; visibility: inherit; font-family: Roboto, sans-serif; font-size: 12px; font-weight: 200;" fill="rgb(50, 49, 63)" stroke="none" stroke-width="1px">40</text><text x="241.66666666666669" y="0" dx="0em" dy="0.95em" style="text-anchor: middle; visibility: inherit; font-family: Roboto, sans-serif; font-size: 12px; font-weight: 200;" fill="rgb(50, 49, 63)" stroke="none" stroke-width="1px">45</text><text x="265.8333333333333" y="0" dx="0em" dy="0.95em" style="text-anchor: middle; visibility: inherit; font-family: Roboto, sans-serif; font-size: 12px; font-weight: 200;" fill="rgb(50, 49, 63)" stroke="none" stroke-width="1px">50</text><text x="290" y="0" dx="0em" dy="0.95em" style="text-anchor: middle; visibility: hidden; font-family: Roboto, sans-serif; font-size: 12px; font-weight: 200;" fill="rgb(50, 49, 63)" stroke="none" stroke-width="1px">55</text></g><line x1="0" y1="0" x2="290" y2="0" fill="rgb(0, 0, 0)" stroke="rgb(204, 204, 204)" stroke-width="1px"></line></g></g></g></g></svg>