<svg viewBox="0 0 1496 400" xmlns="http://www.w3.org/2000/svg"><g><g><g><g><g><line x1="70" y1="378" x2="65" y2="378" style="visibility: inherit;" fill="rgb(0, 0, 0)" stroke="rgb(204, 204, 204)" stroke-width="1px"></line><line x1="70" y1="324" x2="65" y2="324" style="visibility: inherit;" fill="rgb(0, 0, 0)" stroke="rgb(204, 204, 204)" stroke-width="1px"></line><line x1="70" y1="270" x2="65" y2="270" style="visibility: inherit;" fill="rgb(0, 0, 0)" stroke="rgb(204, 204, 204)" stroke-width="1px"></line><line x1="70" y1="216" x2="65" y2="216" style="visibility: inherit;" fill="rgb(0, 0, 0)" stroke="rgb(204, 204, 204)" stroke-width="1px"></line><line x1="70" y1="162" x2="65" y2="162" style="visibility: inherit;" fill="rgb(0, 0, 0)" stroke="rgb(204, 204, 204)" stroke-width="1px"></line><line x1="70" y1="108" x2="65" y2="108" style="visibility: inherit;" fill="rgb(0, 0, 0)" stroke="rgb(204, 204, 204)" stroke-width="1px"></line><line x1="70" y1="54.00000000000002" x2="65" y2="54.00000000000002" style="visibility: inherit;" fill="rgb(0, 0, 0)" stroke="rgb(204, 204, 204)" stroke-width="1px"></line><line x1="70" y1="0" x2="65" y2="0" style="visibility: inherit;" fill="rgb(0, 0, 0)" stroke="rgb(204, 204, 204)" stroke-width="1px"></line></g><g transform="translate(60, 0)"><text x="0" y="378" dx="0em" dy="0.3em" style="text-anchor: end; visibility: hidden; font-family: Roboto, sans-serif; font-size: 12px; font-weight: 200;" fill="rgb(50, 49, 63)" stroke="none" stroke-width="1px">-500</text><text x="0" y="324" dx="0em" dy="0.3em" style="text-anchor: end; visibility: inherit; font-family: Roboto, sans-serif; font-size: 12px; font-weight: 200;" fill="rgb(50, 49, 63)" stroke="none" stroke-width="1px">0</text><text x="0" y="270" dx="0em" dy="0.3em" style="text-anchor: end; visibility: inherit; font-family: Roboto, sans-serif; font-size: 12px; font-weight: 200;" fill="rgb(50, 49, 63)" stroke="none" stroke-width="1px">500</text><text x="0" y="216" dx="0em" dy="0.3em" style="text-anchor: end; visibility: inherit; font-family: Roboto, sans-serif; font-size: 12px; font-weight: 200;" fill="rgb(50, 49, 63)" stroke="none" stroke-width="1px">1e+3</text><text x="0" y="162" dx="0em" dy="0.3em" style="text-anchor: end; visibility: inherit; font-family: Roboto, sans-serif; font-size: 12px; font-weight: 200;" fill="rgb(50, 49, 63)" stroke="none" stroke-width="1px">1.5e+3</text><text x="0" y="108" dx="0em" dy="0.3em" style="text-anchor: end; visibility: inherit; font-family: Roboto, sans-serif; font-size: 12px; font-weight: 200;" fill="rgb(50, 49, 63)" stroke="none" stroke-width="1px">2e+3</text><text x="0" y="54.00000000000002" dx="0em" dy="0.3em" style="text-anchor: end; visibility: inherit; font-family: Roboto, sans-serif; font-size: 12px; font-weight: 200;" fill="rgb(50, 49, 63)" stroke="none" stroke-width="1px">2.5e+3</text><text x="0" y="0" dx="0em" dy="0.3em" style="text-anchor: end; visibility: hidden; font-family: Roboto, sans-serif; font-size: 12px; font-weight: 200;" fill="rgb(50, 49, 63)" stroke="none" stroke-width="1px">3e+3</text></g><line x1="70" y1="0" x2="70" y2="378" fill="rgb(0, 0, 0)" stroke="rgb(204, 204, 204)" stroke-width="1px"></line></g></g><g transform="translate(70, 0)" clip-path="url(#clip_0)"><clipPath id="clip_0"><rect width="1426" height="378"></rect></clipPath><g><g><g><line x1="0" y1="0" x2="0" y2="378" fill="rgb(0, 0, 0)" stroke="rgb(60, 60, 60)" stroke-width="1px" opacity="0.25"></line><line x1="118.83333333333333" y1="0" x2="118.83333333333333" y2="378" fill="rgb(0, 0, 0)" stroke="rgb(60, 60, 60)" stroke-width="1px" opacity="0.25"></line><line x1="237.66666666666666" y1="0" x2="237.66666666666666" y2="378" fill="rgb(0, 0, 0)" stroke="rgb(60, 60, 60)" stroke-width="1px" opacity="0.25"></line><line x1="356.5" y1="0" x2="356.5" y2="378" fill="rgb(0, 0, 0)" stroke="rgb(60, 60, 60)" stroke-width="1px" opacity="0.25"></line><line x1="475.3333333333333" y1="0" x2="475.3333333333333" y2="378" fill="rgb(0, 0, 0)" stroke="rgb(60, 60, 60)" stroke-width="1px" opacity="0.25"></line><line x1="594.1666666666667" y1="0" x2="594.1666666666667" y2="378" fill="rgb(0, 0, 0)" stroke="rgb(60, 60, 60)" stroke-width="1px" opacity="0.25"></line><line x1="713" y1="0" x2="713" y2="378" fill="rgb(0, 0, 0)" stroke="rgb(60, 60, 60)" stroke-width="1px" opacity="0.25"></line><line x1="831.8333333333334" y1="0" x2="831.8333333333334" y2="378" fill="rgb(0, 0, 0)" stroke="rgb(60, 60, 60)" stroke-width="1px" opacity="0.25"></line><line x1="950.6666666666666" y1="0" x2="950.6666666666666" y2="378" fill="rgb(0, 0, 0)" stroke="rgb(60, 60, 60)" stroke-width="1px" opacity="0.25"></line><line x1="1069.5" y1="0" x2="1069.5" y2="378" fill="rgb(0, 0, 0)" stroke="rgb(60, 60, 60)" stroke-width="1px" opacity="0.25"></line><line x1="1188.3333333333335" y1="0" x2="1188.3333333333335" y2="378" fill="rgb(0, 0, 0)" stroke="rgb(60, 60, 60)" stroke-width="1px" opacity="0.25"></line><line x1="1307.1666666666665" y1="0" x2="1307.1666666666665" y2="378" fill="rgb(0, 0, 0)" stroke="rgb(60, 60, 60)" stroke-width="1px" opacity="0.25"></line><line x1="1426" y1="0" x2="1426" y2="378" fill="rgb(0, 0, 0)" stroke="rgb(60, 60, 60)" stroke-width="1px" opacity="0.25"></line></g><g><line x1="0" y1="378" x2="1426" y2="378" fill="rgb(0, 0, 0)" stroke="rgb(60, 60, 60)" stroke-width="1px" opacity="0.25"></line><line x1="0" y1="324" x2="1426" y2="324" fill="rgb(0, 0, 0)" stroke="rgb(60, 60, 60)" stroke-width="1px" opacity="0.25"></line><line x1="0" y1="270" x2="1426" y2="270" fill="rgb(0, 0, 0)" stroke="rgb(60, 60, 60)" stroke-width="1px" opacity="0.25"></line><line x1="0" y1="216" x2="1426" y2="216" fill="rgb(0, 0, 0)" stroke="rgb(60, 60, 60)" stroke-width="1px" opacity="0.25"></line><line x1="0" y1="162" x2="1426" y2="162" fill="rgb(0, 0, 0)" stroke="rgb(60, 60, 60)" stroke-width="1px" opacity="0.25"></line><line x1="0" y1="108" x2="1426" y2="108" fill="rgb(0, 0, 0)" stroke="rgb(60, 60, 60)" stroke-width="1px" opacity="0.25"></line><line x1="0" y1="54.00000000000002" x2="1426" y2="54.00000000000002" fill="rgb(0, 0, 0)" stroke="rgb(60, 60, 60)" stroke-width="1px" opacity="0.25"></line><line x1="0" y1="0" x2="1426" y2="0" fill="rgb(0, 0, 0)" stroke="rgb(60, 60, 60)" stroke-width="1px" opacity="0.25"></line></g></g></g><g><g><line x1="0" y1="324" x2="1426" y2="324" fill="rgb(0, 0, 0)" stroke="rgb(153, 153, 153)" stroke-width="1.5px"></line></g></g><g><g><line x1="118.83333333333333" y1="0" x2="118.83333333333333" y2="378" fill="rgb(0, 0, 0)" stroke="rgb(153, 153, 153)" stroke-width="1.5px"></line></g></g><g><g><g><g><g><path stroke="rgb(0, 119, 187)" stroke-width="2px" d="M118.83333333333333,323.5207272377014L142.6,323.4610160374225L166.36666666666667,323.34260577642146L190.13333333333333,323.20172283167943L213.9,322.92425226027103L237.66666666666666,322.71056180955924L261.43333333333334,322.45659446999025L285.2,321.92331354781436L308.9666666666667,321.4556105047344L332.73333333333335,320.69749787264476L356.5,319.5423353133699L380.26666666666665,318.4169540854061L404.0333333333333,316.5540022004771L427.8,314.4812429709328L451.56666666666666,311.68756240652084L475.3333333333333,308.33485207172504L499.09999999999997,304.05329608378634L522.8666666666667,298.8658951632434L546.6333333333333,295.8464401670683L570.4,291.4634322870472L594.1666666666667,284.1409071501106L617.9333333333334,282.70622765918813L641.7,274.5259428277972L665.4666666666667,264.9923404109801L689.2333333333333,259.8660210051038L713,258.33101752895186L736.7666666666668,245.73557656087385L760.5333333333333,228.32333244665858L784.3000000000001,231.1777018376868L808.0666666666666,218.33861069562212L831.8333333333334,214.85912752358362L855.6,205.25764644396332L879.3666666666667,196.7857904313678L903.1333333333333,190.35333511647855L926.9,182.81841556088747L950.6666666666666,169.97304658054395L974.4333333333334,156.49357522806105L998.1999999999999,146.310542865666L1021.9666666666667,123.65693615572364L1045.7333333333333,117.33456180157113L1069.5,116.69253836596369L1093.2666666666667,105.72490314875988L1117.0333333333333,70.71990030219358L1140.8,86.52742078135368L1164.5666666666666,81.07451993930137L1188.3333333333335,57.3060404501634L1212.1,57.86481777744299L1235.8666666666668,24.466880937867547L1259.6333333333332,21.484315597125217L1283.4,31.866734605832622" style="fill: none;" fill="none"></path></g><g><path stroke="rgb(255, 112, 67)" stroke-width="2px" d="M118.83333333333333,323.0398398971558L142.6,323.68456707099483L166.36666666666667,323.8635797372962L190.13333333333333,323.9525617377116L213.9,323.94882839566657L237.66666666666666,323.88506991825193L261.43333333333334,323.8975478690564L285.2,323.89564517188694L308.9666666666667,323.8456138375411L332.73333333333335,323.7851868682265L356.5,323.70067429316435L380.26666666666665,323.59329739782527L404.0333333333333,323.4571034443603L427.8,323.240013052655L451.56666666666666,322.9503597018777L475.3333333333333,322.48683819283536L499.09999999999997,322.2451513254874L522.8666666666667,321.5385285201643L546.6333333333333,320.94204111957083L570.4,320.2216232599323L594.1666666666667,319.05435973265696L617.9333333333334,319.34556976203754L641.7,317.5236008591273L665.4666666666667,316.31387537881255L689.2333333333333,317.01212891579456L713,315.2339158691543L736.7666666666668,314.17567400737363L760.5333333333333,313.06875272398577L784.3000000000001,313.0456780293628L808.0666666666666,313.29404462648455L831.8333333333334,306.5921144471371L855.6,310.64189250316656L879.3666666666667,306.90756800355166L903.1333333333333,307.65343722835195L926.9,306.1144608703382L950.6666666666666,307.46538308066914L974.4333333333334,300.08714921190966L998.1999999999999,300.93945790439335L1021.9666666666667,302.07694414966676L1045.7333333333333,302.1552009235089L1069.5,300.19939286621235L1093.2666666666667,299.6442202668433L1117.0333333333333,295.9430673428121L1140.8,295.0563600357556L1164.5666666666666,296.69404784945743L1188.3333333333335,292.2610196478587L1212.1,302.2816145517671L1235.8666666666668,289.4748826785336L1259.6333333333332,288.56187314817015L1283.4,288.0785973969338" style="fill: none;" fill="none"></path></g></g></g></g><g opacity="0.2"><g><g><g><path stroke="rgb(0, 119, 187)" stroke-width="2px" d="M118.83333333333333,323.5207272377014L142.6,323.4584484558105L166.36666666666667,323.3372951946259L190.13333333333333,323.1953931713104L213.9,322.9117849731445L237.66666666666666,322.7009602546692L261.43333333333334,322.4451831893921L285.2,321.8993521270752L308.9666666666667,321.43459563446044L332.73333333333335,320.6634342956543L356.5,319.49043145751955L380.26666666666665,318.3663883666992L404.0333333333333,316.4702958984375L427.8,314.3881095886231L451.56666666666666,311.56203652954105L475.3333333333333,308.184207824707L499.09999999999997,303.8609168701172L522.8666666666667,298.632814453125L546.6333333333333,295.71076977539065L570.4,291.26649462890623L594.1666666666667,283.8118908691406L617.9333333333334,282.6417645263672L641.7,274.1583856201172L665.4666666666667,264.5639758300781L689.2333333333333,259.6356848144531L713,258.2620466308594L736.7666666666668,245.1696372070313L760.5333333333333,227.54096411132812L784.3000000000001,231.30595458984374L808.0666666666666,217.7617236328125L831.8333333333334,214.702787109375L855.6,204.82623193359373L879.3666666666667,196.40513232421876L903.1333333333333,190.0643115234375L926.9,182.47985595703125L950.6666666666666,169.39587744140624L974.4333333333334,155.88791455078126L998.1999999999999,145.852998046875L1021.9666666666667,122.6390625L1045.7333333333333,117.050484375L1069.5,116.66369091796876L1093.2666666666667,105.23210449218749L1117.0333333333333,69.14705273437498L1140.8,87.23768554687499L1164.5666666666666,80.82950976562499L1188.3333333333335,56.238073242187504L1212.1,57.88992480468749L1235.8666666666668,22.966242187499997L1259.6333333333332,21.350302734375006L1283.4,32.33323828125002" style="fill: none;" fill="none"></path></g><g><path stroke="rgb(255, 112, 67)" stroke-width="2px" d="M118.83333333333333,323.0398398971558L142.6,323.7122903394699L166.36666666666667,323.8716082763672L190.13333333333333,323.9565595661402L213.9,323.94866064941885L237.66666666666666,323.8822051177025L261.43333333333334,323.8981085293293L285.2,323.8955596797466L308.9666666666667,323.84336582565305L332.73333333333335,323.78247175884246L356.5,323.6968769674301L380.26666666666665,323.5884727306366L404.0333333333333,323.4509839668274L427.8,323.2302587299347L451.56666666666666,322.9373449745178L475.3333333333333,322.46601120758055L499.09999999999997,322.2342918319702L522.8666666666667,321.50677848815917L546.6333333333333,320.9152397003174L570.4,320.1892533874512L594.1666666666667,319.00191215515133L617.9333333333334,319.3586544342041L641.7,317.44173600769045L665.4666666666667,316.25951989746096L689.2333333333333,317.04350289916994L713,315.1540170593262L736.7666666666668,314.128125L760.5333333333333,313.01901644897464L784.3000000000001,313.0446412353516L808.0666666666666,313.3052042541504L831.8333333333334,306.2909827880859L855.6,310.8238574523926L879.3666666666667,306.73977703857423L903.1333333333333,307.68695068359375L926.9,306.04531146240237L950.6666666666666,307.52608282470703L974.4333333333334,299.7556298217773L998.1999999999999,300.97775390625003L1021.9666666666667,302.12805377197265L1045.7333333333333,302.15871716308595L1069.5,300.1115143432617L1093.2666666666667,299.61927520751954L1117.0333333333333,295.77676684570315L1140.8,295.0165184326172L1164.5666666666666,296.7676325683594L1188.3333333333335,292.06183447265624L1212.1,302.7318607177735L1235.8666666666668,288.89944958496096L1259.6333333333332,288.5208497314453L1283.4,288.0568828125" style="fill: none;" fill="none"></path></g></g></g></g></g><g><g><span fill="rgb(0, 0, 0)" stroke="none" stroke-width="1px">Alt + Scroll to Zoom</span></g></g></g><g transform="translate(70, 378)" clip-path="url(#clip_1)"><clipPath id="clip_1"><rect width="1426" height="22"></rect></clipPath><g><g><line x1="0" y1="0" x2="0" y2="5" style="visibility: inherit;" fill="rgb(0, 0, 0)" stroke="rgb(204, 204, 204)" stroke-width="1px"></line><line x1="118.83333333333333" y1="0" x2="118.83333333333333" y2="5" style="visibility: inherit;" fill="rgb(0, 0, 0)" stroke="rgb(204, 204, 204)" stroke-width="1px"></line><line x1="237.66666666666666" y1="0" x2="237.66666666666666" y2="5" style="visibility: inherit;" fill="rgb(0, 0, 0)" stroke="rgb(204, 204, 204)" stroke-width="1px"></line><line x1="356.5" y1="0" x2="356.5" y2="5" style="visibility: inherit;" fill="rgb(0, 0, 0)" stroke="rgb(204, 204, 204)" stroke-width="1px"></line><line x1="475.3333333333333" y1="0" x2="475.3333333333333" y2="5" style="visibility: inherit;" fill="rgb(0, 0, 0)" stroke="rgb(204, 204, 204)" stroke-width="1px"></line><line x1="594.1666666666667" y1="0" x2="594.1666666666667" y2="5" style="visibility: inherit;" fill="rgb(0, 0, 0)" stroke="rgb(204, 204, 204)" stroke-width="1px"></line><line x1="713" y1="0" x2="713" y2="5" style="visibility: inherit;" fill="rgb(0, 0, 0)" stroke="rgb(204, 204, 204)" stroke-width="1px"></line><line x1="831.8333333333334" y1="0" x2="831.8333333333334" y2="5" style="visibility: inherit;" fill="rgb(0, 0, 0)" stroke="rgb(204, 204, 204)" stroke-width="1px"></line><line x1="950.6666666666666" y1="0" x2="950.6666666666666" y2="5" style="visibility: inherit;" fill="rgb(0, 0, 0)" stroke="rgb(204, 204, 204)" stroke-width="1px"></line><line x1="1069.5" y1="0" x2="1069.5" y2="5" style="visibility: inherit;" fill="rgb(0, 0, 0)" stroke="rgb(204, 204, 204)" stroke-width="1px"></line><line x1="1188.3333333333335" y1="0" x2="1188.3333333333335" y2="5" style="visibility: inherit;" fill="rgb(0, 0, 0)" stroke="rgb(204, 204, 204)" stroke-width="1px"></line><line x1="1307.1666666666665" y1="0" x2="1307.1666666666665" y2="5" style="visibility: inherit;" fill="rgb(0, 0, 0)" stroke="rgb(204, 204, 204)" stroke-width="1px"></line><line x1="1426" y1="0" x2="1426" y2="5" style="visibility: inherit;" fill="rgb(0, 0, 0)" stroke="rgb(204, 204, 204)" stroke-width="1px"></line></g><g transform="translate(0, 8)"><text x="0" y="0" dx="0em" dy="0.95em" style="text-anchor: middle; visibility: hidden; font-family: Roboto, sans-serif; font-size: 12px; font-weight: 200;" fill="rgb(50, 49, 63)" stroke="none" stroke-width="1px">-5</text><text x="118.83333333333333" y="0" dx="0em" dy="0.95em" style="text-anchor: middle; visibility: inherit; font-family: Roboto, sans-serif; font-size: 12px; font-weight: 200;" fill="rgb(50, 49, 63)" stroke="none" stroke-width="1px">0</text><text x="237.66666666666666" y="0" dx="0em" dy="0.95em" style="text-anchor: middle; visibility: inherit; font-family: Roboto, sans-serif; font-size: 12px; font-weight: 200;" fill="rgb(50, 49, 63)" stroke="none" stroke-width="1px">5</text><text x="356.5" y="0" dx="0em" dy="0.95em" style="text-anchor: middle; visibility: inherit; font-family: Roboto, sans-serif; font-size: 12px; font-weight: 200;" fill="rgb(50, 49, 63)" stroke="none" stroke-width="1px">10</text><text x="475.3333333333333" y="0" dx="0em" dy="0.95em" style="text-anchor: middle; visibility: inherit; font-family: Roboto, sans-serif; font-size: 12px; font-weight: 200;" fill="rgb(50, 49, 63)" stroke="none" stroke-width="1px">15</text><text x="594.1666666666667" y="0" dx="0em" dy="0.95em" style="text-anchor: middle; visibility: inherit; font-family: Roboto, sans-serif; font-size: 12px; font-weight: 200;" fill="rgb(50, 49, 63)" stroke="none" stroke-width="1px">20</text><text x="713" y="0" dx="0em" dy="0.95em" style="text-anchor: middle; visibility: inherit; font-family: Roboto, sans-serif; font-size: 12px; font-weight: 200;" fill="rgb(50, 49, 63)" stroke="none" stroke-width="1px">25</text><text x="831.8333333333334" y="0" dx="0em" dy="0.95em" style="text-anchor: middle; visibility: inherit; font-family: Roboto, sans-serif; font-size: 12px; font-weight: 200;" fill="rgb(50, 49, 63)" stroke="none" stroke-width="1px">30</text><text x="950.6666666666666" y="0" dx="0em" dy="0.95em" style="text-anchor: middle; visibility: inherit; font-family: Roboto, sans-serif; font-size: 12px; font-weight: 200;" fill="rgb(50, 49, 63)" stroke="none" stroke-width="1px">35</text><text x="1069.5" y="0" dx="0em" dy="0.95em" style="text-anchor: middle; visibility: inherit; font-family: Roboto, sans-serif; font-size: 12px; font-weight: 200;" fill="rgb(50, 49, 63)" stroke="none" stroke-width="1px">40</text><text x="1188.3333333333335" y="0" dx="0em" dy="0.95em" style="text-anchor: middle; visibility: inherit; font-family: Roboto, sans-serif; font-size: 12px; font-weight: 200;" fill="rgb(50, 49, 63)" stroke="none" stroke-width="1px">45</text><text x="1307.1666666666665" y="0" dx="0em" dy="0.95em" style="text-anchor: middle; visibility: inherit; font-family: Roboto, sans-serif; font-size: 12px; font-weight: 200;" fill="rgb(50, 49, 63)" stroke="none" stroke-width="1px">50</text><text x="1426" y="0" dx="0em" dy="0.95em" style="text-anchor: middle; visibility: hidden; font-family: Roboto, sans-serif; font-size: 12px; font-weight: 200;" fill="rgb(50, 49, 63)" stroke="none" stroke-width="1px">55</text></g><line x1="0" y1="0" x2="1426" y2="0" fill="rgb(0, 0, 0)" stroke="rgb(204, 204, 204)" stroke-width="1px"></line></g></g></g></g></svg>