<svg viewBox="0 0 1513 400" xmlns="http://www.w3.org/2000/svg"><g><g><g><g><g><line x1="50" y1="378" x2="45" y2="378" style="visibility: inherit;" fill="rgb(0, 0, 0)" stroke="rgb(204, 204, 204)" stroke-width="1px"></line><line x1="50" y1="343.6363636363636" x2="45" y2="343.6363636363636" style="visibility: inherit;" fill="rgb(0, 0, 0)" stroke="rgb(204, 204, 204)" stroke-width="1px"></line><line x1="50" y1="309.27272727272725" x2="45" y2="309.27272727272725" style="visibility: inherit;" fill="rgb(0, 0, 0)" stroke="rgb(204, 204, 204)" stroke-width="1px"></line><line x1="50" y1="274.90909090909093" x2="45" y2="274.90909090909093" style="visibility: inherit;" fill="rgb(0, 0, 0)" stroke="rgb(204, 204, 204)" stroke-width="1px"></line><line x1="50" y1="240.54545454545453" x2="45" y2="240.54545454545453" style="visibility: inherit;" fill="rgb(0, 0, 0)" stroke="rgb(204, 204, 204)" stroke-width="1px"></line><line x1="50" y1="206.18181818181816" x2="45" y2="206.18181818181816" style="visibility: inherit;" fill="rgb(0, 0, 0)" stroke="rgb(204, 204, 204)" stroke-width="1px"></line><line x1="50" y1="171.81818181818184" x2="45" y2="171.81818181818184" style="visibility: inherit;" fill="rgb(0, 0, 0)" stroke="rgb(204, 204, 204)" stroke-width="1px"></line><line x1="50" y1="137.4545454545455" x2="45" y2="137.4545454545455" style="visibility: inherit;" fill="rgb(0, 0, 0)" stroke="rgb(204, 204, 204)" stroke-width="1px"></line><line x1="50" y1="103.09090909090912" x2="45" y2="103.09090909090912" style="visibility: inherit;" fill="rgb(0, 0, 0)" stroke="rgb(204, 204, 204)" stroke-width="1px"></line><line x1="50" y1="68.72727272727275" x2="45" y2="68.72727272727275" style="visibility: inherit;" fill="rgb(0, 0, 0)" stroke="rgb(204, 204, 204)" stroke-width="1px"></line><line x1="50" y1="34.363636363636374" x2="45" y2="34.363636363636374" style="visibility: inherit;" fill="rgb(0, 0, 0)" stroke="rgb(204, 204, 204)" stroke-width="1px"></line><line x1="50" y1="0" x2="45" y2="0" style="visibility: inherit;" fill="rgb(0, 0, 0)" stroke="rgb(204, 204, 204)" stroke-width="1px"></line></g><g transform="translate(40, 0)"><text x="0" y="378" dx="0em" dy="0.3em" style="text-anchor: end; visibility: hidden; font-family: Roboto, sans-serif; font-size: 12px; font-weight: 200;" fill="rgb(50, 49, 63)" stroke="none" stroke-width="1px">-0.1</text><text x="0" y="343.6363636363636" dx="0em" dy="0.3em" style="text-anchor: end; visibility: inherit; font-family: Roboto, sans-serif; font-size: 12px; font-weight: 200;" fill="rgb(50, 49, 63)" stroke="none" stroke-width="1px">0</text><text x="0" y="309.27272727272725" dx="0em" dy="0.3em" style="text-anchor: end; visibility: inherit; font-family: Roboto, sans-serif; font-size: 12px; font-weight: 200;" fill="rgb(50, 49, 63)" stroke="none" stroke-width="1px">0.1</text><text x="0" y="274.90909090909093" dx="0em" dy="0.3em" style="text-anchor: end; visibility: inherit; font-family: Roboto, sans-serif; font-size: 12px; font-weight: 200;" fill="rgb(50, 49, 63)" stroke="none" stroke-width="1px">0.2</text><text x="0" y="240.54545454545453" dx="0em" dy="0.3em" style="text-anchor: end; visibility: inherit; font-family: Roboto, sans-serif; font-size: 12px; font-weight: 200;" fill="rgb(50, 49, 63)" stroke="none" stroke-width="1px">0.3</text><text x="0" y="206.18181818181816" dx="0em" dy="0.3em" style="text-anchor: end; visibility: inherit; font-family: Roboto, sans-serif; font-size: 12px; font-weight: 200;" fill="rgb(50, 49, 63)" stroke="none" stroke-width="1px">0.4</text><text x="0" y="171.81818181818184" dx="0em" dy="0.3em" style="text-anchor: end; visibility: inherit; font-family: Roboto, sans-serif; font-size: 12px; font-weight: 200;" fill="rgb(50, 49, 63)" stroke="none" stroke-width="1px">0.5</text><text x="0" y="137.4545454545455" dx="0em" dy="0.3em" style="text-anchor: end; visibility: inherit; font-family: Roboto, sans-serif; font-size: 12px; font-weight: 200;" fill="rgb(50, 49, 63)" stroke="none" stroke-width="1px">0.6</text><text x="0" y="103.09090909090912" dx="0em" dy="0.3em" style="text-anchor: end; visibility: inherit; font-family: Roboto, sans-serif; font-size: 12px; font-weight: 200;" fill="rgb(50, 49, 63)" stroke="none" stroke-width="1px">0.7</text><text x="0" y="68.72727272727275" dx="0em" dy="0.3em" style="text-anchor: end; visibility: inherit; font-family: Roboto, sans-serif; font-size: 12px; font-weight: 200;" fill="rgb(50, 49, 63)" stroke="none" stroke-width="1px">0.8</text><text x="0" y="34.363636363636374" dx="0em" dy="0.3em" style="text-anchor: end; visibility: inherit; font-family: Roboto, sans-serif; font-size: 12px; font-weight: 200;" fill="rgb(50, 49, 63)" stroke="none" stroke-width="1px">0.9</text><text x="0" y="0" dx="0em" dy="0.3em" style="text-anchor: end; visibility: hidden; font-family: Roboto, sans-serif; font-size: 12px; font-weight: 200;" fill="rgb(50, 49, 63)" stroke="none" stroke-width="1px">1</text></g><line x1="50" y1="0" x2="50" y2="378" fill="rgb(0, 0, 0)" stroke="rgb(204, 204, 204)" stroke-width="1px"></line></g></g><g transform="translate(50, 0)" clip-path="url(#clip_0)"><clipPath id="clip_0"><rect width="1463" height="378"></rect></clipPath><g><g><g><line x1="0" y1="0" x2="0" y2="378" fill="rgb(0, 0, 0)" stroke="rgb(60, 60, 60)" stroke-width="1px" opacity="0.25"></line><line x1="121.91666666666666" y1="0" x2="121.91666666666666" y2="378" fill="rgb(0, 0, 0)" stroke="rgb(60, 60, 60)" stroke-width="1px" opacity="0.25"></line><line x1="243.83333333333331" y1="0" x2="243.83333333333331" y2="378" fill="rgb(0, 0, 0)" stroke="rgb(60, 60, 60)" stroke-width="1px" opacity="0.25"></line><line x1="365.75" y1="0" x2="365.75" y2="378" fill="rgb(0, 0, 0)" stroke="rgb(60, 60, 60)" stroke-width="1px" opacity="0.25"></line><line x1="487.66666666666663" y1="0" x2="487.66666666666663" y2="378" fill="rgb(0, 0, 0)" stroke="rgb(60, 60, 60)" stroke-width="1px" opacity="0.25"></line><line x1="609.5833333333334" y1="0" x2="609.5833333333334" y2="378" fill="rgb(0, 0, 0)" stroke="rgb(60, 60, 60)" stroke-width="1px" opacity="0.25"></line><line x1="731.5" y1="0" x2="731.5" y2="378" fill="rgb(0, 0, 0)" stroke="rgb(60, 60, 60)" stroke-width="1px" opacity="0.25"></line><line x1="853.4166666666667" y1="0" x2="853.4166666666667" y2="378" fill="rgb(0, 0, 0)" stroke="rgb(60, 60, 60)" stroke-width="1px" opacity="0.25"></line><line x1="975.3333333333333" y1="0" x2="975.3333333333333" y2="378" fill="rgb(0, 0, 0)" stroke="rgb(60, 60, 60)" stroke-width="1px" opacity="0.25"></line><line x1="1097.25" y1="0" x2="1097.25" y2="378" fill="rgb(0, 0, 0)" stroke="rgb(60, 60, 60)" stroke-width="1px" opacity="0.25"></line><line x1="1219.1666666666667" y1="0" x2="1219.1666666666667" y2="378" fill="rgb(0, 0, 0)" stroke="rgb(60, 60, 60)" stroke-width="1px" opacity="0.25"></line><line x1="1341.0833333333333" y1="0" x2="1341.0833333333333" y2="378" fill="rgb(0, 0, 0)" stroke="rgb(60, 60, 60)" stroke-width="1px" opacity="0.25"></line><line x1="1463" y1="0" x2="1463" y2="378" fill="rgb(0, 0, 0)" stroke="rgb(60, 60, 60)" stroke-width="1px" opacity="0.25"></line></g><g><line x1="0" y1="378" x2="1463" y2="378" fill="rgb(0, 0, 0)" stroke="rgb(60, 60, 60)" stroke-width="1px" opacity="0.25"></line><line x1="0" y1="343.6363636363636" x2="1463" y2="343.6363636363636" fill="rgb(0, 0, 0)" stroke="rgb(60, 60, 60)" stroke-width="1px" opacity="0.25"></line><line x1="0" y1="309.27272727272725" x2="1463" y2="309.27272727272725" fill="rgb(0, 0, 0)" stroke="rgb(60, 60, 60)" stroke-width="1px" opacity="0.25"></line><line x1="0" y1="274.90909090909093" x2="1463" y2="274.90909090909093" fill="rgb(0, 0, 0)" stroke="rgb(60, 60, 60)" stroke-width="1px" opacity="0.25"></line><line x1="0" y1="240.54545454545453" x2="1463" y2="240.54545454545453" fill="rgb(0, 0, 0)" stroke="rgb(60, 60, 60)" stroke-width="1px" opacity="0.25"></line><line x1="0" y1="206.18181818181816" x2="1463" y2="206.18181818181816" fill="rgb(0, 0, 0)" stroke="rgb(60, 60, 60)" stroke-width="1px" opacity="0.25"></line><line x1="0" y1="171.81818181818184" x2="1463" y2="171.81818181818184" fill="rgb(0, 0, 0)" stroke="rgb(60, 60, 60)" stroke-width="1px" opacity="0.25"></line><line x1="0" y1="137.4545454545455" x2="1463" y2="137.4545454545455" fill="rgb(0, 0, 0)" stroke="rgb(60, 60, 60)" stroke-width="1px" opacity="0.25"></line><line x1="0" y1="103.09090909090912" x2="1463" y2="103.09090909090912" fill="rgb(0, 0, 0)" stroke="rgb(60, 60, 60)" stroke-width="1px" opacity="0.25"></line><line x1="0" y1="68.72727272727275" x2="1463" y2="68.72727272727275" fill="rgb(0, 0, 0)" stroke="rgb(60, 60, 60)" stroke-width="1px" opacity="0.25"></line><line x1="0" y1="34.363636363636374" x2="1463" y2="34.363636363636374" fill="rgb(0, 0, 0)" stroke="rgb(60, 60, 60)" stroke-width="1px" opacity="0.25"></line><line x1="0" y1="0" x2="1463" y2="0" fill="rgb(0, 0, 0)" stroke="rgb(60, 60, 60)" stroke-width="1px" opacity="0.25"></line></g></g></g><g><g><line x1="0" y1="343.6363636363636" x2="1463" y2="343.6363636363636" fill="rgb(0, 0, 0)" stroke="rgb(153, 153, 153)" stroke-width="1.5px"></line></g></g><g><g><line x1="121.91666666666666" y1="0" x2="121.91666666666666" y2="378" fill="rgb(0, 0, 0)" stroke="rgb(153, 153, 153)" stroke-width="1.5px"></line></g></g><g><g><g><g><g><path stroke="rgb(0, 119, 187)" stroke-width="2px" d="M121.91666666666666,321.51924616911197L146.3,324.9611700222105L170.68333333333334,327.5198248247964L195.06666666666666,329.2878222724525L219.45,329.87321307815546L243.83333333333331,330.3644075467093L268.21666666666664,331.1333317659529L292.6,332.43440969157206L316.98333333333335,331.24401753400525L341.3666666666667,332.00565933422206L365.75,331.47484848027074L390.1333333333333,331.57123921918236L414.51666666666665,331.2177384291601L438.9,330.34635788013185L463.2833333333333,330.70988423528587L487.66666666666663,331.0289716577212L512.05,330.60918379662377L536.4333333333333,330.5477815665308L560.8166666666667,331.5855639194243L585.2,329.06164729032776L609.5833333333334,329.8851631438996L633.9666666666667,331.0910485803902L658.35,330.2975588645689L682.7333333333333,331.78072142790404L707.1166666666667,331.0966933330367L731.5,330.232775785933L755.8833333333334,330.2606531344072L780.2666666666667,330.34855333942426L804.6500000000001,330.01636435757644L829.0333333333333,331.3459586693082L853.4166666666667,330.633651463589L877.8,330.613860704309L902.1833333333334,330.602171251094L926.5666666666666,330.4932914495402L950.95,329.2097582082209L975.3333333333333,330.4659318152955L999.7166666666667,329.9347089279073L1024.1,329.35914334295495L1048.4833333333333,330.32062686895773L1072.8666666666666,329.71170650508367L1097.25,329.8264142111015L1121.6333333333334,329.8421838679272L1146.0166666666667,330.04877904783484L1170.4,330.43698268330024L1194.7833333333333,331.1798038486831L1219.1666666666667,330.5072924257696L1243.55,329.4162773348629L1267.9333333333334,331.5260707868966L1292.3166666666666,331.8985732435639L1316.7,329.9963125093228" style="fill: none;" fill="none"></path></g><g><path stroke="rgb(255, 112, 67)" stroke-width="2px" d="M121.91666666666666,324.56166616217655L146.3,217.98872181628633L170.68333333333334,96.17736166689284L195.06666666666666,30.688648517944497L219.45,40.48624293666243L243.83333333333331,90.59306373438108L268.21666666666664,77.71865221568036L292.6,69.4527506984942L316.98333333333335,79.56965892382775L341.3666666666667,83.85386852722718L365.75,86.20237877862616L390.1333333333333,88.98429289369362L414.51666666666665,90.0021969668177L438.9,92.25214466431346L463.2833333333333,95.31372992469952L487.66666666666663,98.05183984950969L512.05,97.299209464977L536.4333333333333,101.4511375793455L560.8166666666667,102.0485563272488L585.2,99.77497959110667L609.5833333333334,104.94598422001668L633.9666666666667,93.95127246740151L658.35,99.87827965744735L682.7333333333333,102.66047113272076L707.1166666666667,93.64355248515511L731.5,95.30840479750537L755.8833333333334,96.05954114305003L780.2666666666667,93.13629364708471L804.6500000000001,94.03922630108197L829.0333333333333,90.60122153529078L853.4166666666667,98.51943893272532L877.8,92.74405182054319L902.1833333333334,94.96719542948391L926.5666666666666,92.02813225491589L950.95,91.92037404271625L975.3333333333333,89.08121425717857L999.7166666666667,94.3908075752738L1024.1,93.89301863107127L1048.4833333333333,88.47719912779434L1072.8666666666666,88.85404574490828L1097.25,87.79972926922187L1121.6333333333334,87.54495074127466L1146.0166666666667,89.27473348717196L1170.4,88.44150202533243L1194.7833333333333,86.49273493899517L1219.1666666666667,89.99745864686955L1243.55,79.38258008696396L1267.9333333333334,86.47555297544729L1292.3166666666666,83.5783381243054L1316.7,86.33481822730295" style="fill: none;" fill="none"></path></g></g></g></g><g opacity="0.2"><g><g><g><path stroke="rgb(0, 119, 187)" stroke-width="2px" d="M121.91666666666666,321.51924616911197L146.3,325.10917274789375L170.68333333333334,327.63457793403757L195.06666666666666,329.36725575815547L219.45,329.89951581440187L243.83333333333331,330.38647793233395L268.21666666666664,331.16788112981754L292.6,332.49286982823503L316.98333333333335,331.19053073904735L341.3666666666667,332.039881484075L365.75,331.4509980448268L390.1333333333333,331.57557025551796L414.51666666666665,331.2018549035896L438.9,330.30720494010234L463.2833333333333,330.726218230345L487.66666666666663,331.04330891912633L512.05,330.59032185511154L536.4333333333333,330.545022636652L560.8166666666667,331.6321936385198L585.2,328.94824246791273L609.5833333333334,329.92216542363167L633.9666666666667,331.14523152058774L658.35,330.26190572164273L682.7333333333333,331.8473630059849L707.1166666666667,331.06595852835613L731.5,330.1939581740986L755.8833333333334,330.26190572164273L780.2666666666667,330.35250287841666L804.6500000000001,330.0014384158633L829.0333333333333,331.4057001065124L853.4166666666667,330.60164601965386L877.8,330.61297146434134L902.1833333333334,330.60164601965386L926.5666666666666,330.48839925365013L950.95,329.1520863906904L975.3333333333333,330.5223743075674L999.7166666666667,329.9108399789442L1024.1,329.3332819843834L1048.4833333333333,330.36382832310414L1072.8666666666666,329.6843464469368L1097.25,329.83156826685774L1121.6333333333334,329.84289243140006L1146.0166666666667,330.05806179886514L1170.4,330.45442547987807L1194.7833333333333,331.2131803482771L1219.1666666666667,330.47707508910787L1243.55,329.36725575815547L1267.9333333333334,331.62086819383234L1292.3166666666666,331.9153105535291L1316.7,329.9108399789442" style="fill: none;" fill="none"></path></g><g><path stroke="rgb(255, 112, 67)" stroke-width="2px" d="M121.91666666666666,324.56166616217655L146.3,213.40608520941305L170.68333333333334,90.71424397555268L195.06666666666666,27.74633841081099L219.45,40.9264677221125L243.83333333333331,92.84446705471389L268.21666666666664,77.14017813855955L292.6,69.0813465551897L316.98333333333335,80.02423264763574L341.3666666666667,84.04636697335681L365.75,86.30790222774856L390.1333333333333,89.10929007963705L414.51666666666665,90.047933513468L438.9,92.35323949293661L463.2833333333333,95.45129331675446L487.66666666666663,98.17486882209782L512.05,97.26539221676919L536.4333333333333,101.637692343105L560.8166666666667,102.0753995938735L585.2,99.6728230606426L609.5833333333334,105.17832821065733L633.9666666666667,93.45725720578977L658.35,100.14459241520278L682.7333333333333,102.78548078103503L707.1166666666667,93.23840358040552L731.5,95.38321007381789L755.8833333333334,96.09329126097941L780.2666666666667,93.00494605844672L804.6500000000001,94.07979694279763L829.0333333333333,90.44674483212563L853.4166666666667,98.87522090565078L877.8,92.48455166816716L902.1833333333334,95.06708589467141L926.5666666666666,91.89607403495097L950.95,91.91553224216811L975.3333333333333,88.95364490422341L999.7166666666667,94.6293786439029L1024.1,93.87065193869853L1048.4833333333333,88.23385509577668L1072.8666666666666,88.87097824703567L1097.25,87.75235663760793L1121.6333333333334,87.53350301222372L1146.0166666666667,89.352456222881L1170.4,88.40406320311808L1194.7833333333333,86.40517278151083L1219.1666666666667,90.15493317083883L1243.55,78.90563152053141L1267.9333333333334,86.79425499655986L1292.3166666666666,83.44816023653205L1316.7,86.45867261019623" style="fill: none;" fill="none"></path></g></g></g></g></g></g><g transform="translate(50, 378)" clip-path="url(#clip_1)"><clipPath id="clip_1"><rect width="1463" height="22"></rect></clipPath><g><g><line x1="0" y1="0" x2="0" y2="5" style="visibility: inherit;" fill="rgb(0, 0, 0)" stroke="rgb(204, 204, 204)" stroke-width="1px"></line><line x1="121.91666666666666" y1="0" x2="121.91666666666666" y2="5" style="visibility: inherit;" fill="rgb(0, 0, 0)" stroke="rgb(204, 204, 204)" stroke-width="1px"></line><line x1="243.83333333333331" y1="0" x2="243.83333333333331" y2="5" style="visibility: inherit;" fill="rgb(0, 0, 0)" stroke="rgb(204, 204, 204)" stroke-width="1px"></line><line x1="365.75" y1="0" x2="365.75" y2="5" style="visibility: inherit;" fill="rgb(0, 0, 0)" stroke="rgb(204, 204, 204)" stroke-width="1px"></line><line x1="487.66666666666663" y1="0" x2="487.66666666666663" y2="5" style="visibility: inherit;" fill="rgb(0, 0, 0)" stroke="rgb(204, 204, 204)" stroke-width="1px"></line><line x1="609.5833333333334" y1="0" x2="609.5833333333334" y2="5" style="visibility: inherit;" fill="rgb(0, 0, 0)" stroke="rgb(204, 204, 204)" stroke-width="1px"></line><line x1="731.5" y1="0" x2="731.5" y2="5" style="visibility: inherit;" fill="rgb(0, 0, 0)" stroke="rgb(204, 204, 204)" stroke-width="1px"></line><line x1="853.4166666666667" y1="0" x2="853.4166666666667" y2="5" style="visibility: inherit;" fill="rgb(0, 0, 0)" stroke="rgb(204, 204, 204)" stroke-width="1px"></line><line x1="975.3333333333333" y1="0" x2="975.3333333333333" y2="5" style="visibility: inherit;" fill="rgb(0, 0, 0)" stroke="rgb(204, 204, 204)" stroke-width="1px"></line><line x1="1097.25" y1="0" x2="1097.25" y2="5" style="visibility: inherit;" fill="rgb(0, 0, 0)" stroke="rgb(204, 204, 204)" stroke-width="1px"></line><line x1="1219.1666666666667" y1="0" x2="1219.1666666666667" y2="5" style="visibility: inherit;" fill="rgb(0, 0, 0)" stroke="rgb(204, 204, 204)" stroke-width="1px"></line><line x1="1341.0833333333333" y1="0" x2="1341.0833333333333" y2="5" style="visibility: inherit;" fill="rgb(0, 0, 0)" stroke="rgb(204, 204, 204)" stroke-width="1px"></line><line x1="1463" y1="0" x2="1463" y2="5" style="visibility: inherit;" fill="rgb(0, 0, 0)" stroke="rgb(204, 204, 204)" stroke-width="1px"></line></g><g transform="translate(0, 8)"><text x="0" y="0" dx="0em" dy="0.95em" style="text-anchor: middle; visibility: hidden; font-family: Roboto, sans-serif; font-size: 12px; font-weight: 200;" fill="rgb(50, 49, 63)" stroke="none" stroke-width="1px">-5</text><text x="121.91666666666666" y="0" dx="0em" dy="0.95em" style="text-anchor: middle; visibility: inherit; font-family: Roboto, sans-serif; font-size: 12px; font-weight: 200;" fill="rgb(50, 49, 63)" stroke="none" stroke-width="1px">0</text><text x="243.83333333333331" y="0" dx="0em" dy="0.95em" style="text-anchor: middle; visibility: inherit; font-family: Roboto, sans-serif; font-size: 12px; font-weight: 200;" fill="rgb(50, 49, 63)" stroke="none" stroke-width="1px">5</text><text x="365.75" y="0" dx="0em" dy="0.95em" style="text-anchor: middle; visibility: inherit; font-family: Roboto, sans-serif; font-size: 12px; font-weight: 200;" fill="rgb(50, 49, 63)" stroke="none" stroke-width="1px">10</text><text x="487.66666666666663" y="0" dx="0em" dy="0.95em" style="text-anchor: middle; visibility: inherit; font-family: Roboto, sans-serif; font-size: 12px; font-weight: 200;" fill="rgb(50, 49, 63)" stroke="none" stroke-width="1px">15</text><text x="609.5833333333334" y="0" dx="0em" dy="0.95em" style="text-anchor: middle; visibility: inherit; font-family: Roboto, sans-serif; font-size: 12px; font-weight: 200;" fill="rgb(50, 49, 63)" stroke="none" stroke-width="1px">20</text><text x="731.5" y="0" dx="0em" dy="0.95em" style="text-anchor: middle; visibility: inherit; font-family: Roboto, sans-serif; font-size: 12px; font-weight: 200;" fill="rgb(50, 49, 63)" stroke="none" stroke-width="1px">25</text><text x="853.4166666666667" y="0" dx="0em" dy="0.95em" style="text-anchor: middle; visibility: inherit; font-family: Roboto, sans-serif; font-size: 12px; font-weight: 200;" fill="rgb(50, 49, 63)" stroke="none" stroke-width="1px">30</text><text x="975.3333333333333" y="0" dx="0em" dy="0.95em" style="text-anchor: middle; visibility: inherit; font-family: Roboto, sans-serif; font-size: 12px; font-weight: 200;" fill="rgb(50, 49, 63)" stroke="none" stroke-width="1px">35</text><text x="1097.25" y="0" dx="0em" dy="0.95em" style="text-anchor: middle; visibility: inherit; font-family: Roboto, sans-serif; font-size: 12px; font-weight: 200;" fill="rgb(50, 49, 63)" stroke="none" stroke-width="1px">40</text><text x="1219.1666666666667" y="0" dx="0em" dy="0.95em" style="text-anchor: middle; visibility: inherit; font-family: Roboto, sans-serif; font-size: 12px; font-weight: 200;" fill="rgb(50, 49, 63)" stroke="none" stroke-width="1px">45</text><text x="1341.0833333333333" y="0" dx="0em" dy="0.95em" style="text-anchor: middle; visibility: inherit; font-family: Roboto, sans-serif; font-size: 12px; font-weight: 200;" fill="rgb(50, 49, 63)" stroke="none" stroke-width="1px">50</text><text x="1463" y="0" dx="0em" dy="0.95em" style="text-anchor: middle; visibility: hidden; font-family: Roboto, sans-serif; font-size: 12px; font-weight: 200;" fill="rgb(50, 49, 63)" stroke="none" stroke-width="1px">55</text></g><line x1="0" y1="0" x2="1463" y2="0" fill="rgb(0, 0, 0)" stroke="rgb(204, 204, 204)" stroke-width="1px"></line></g></g></g></g></svg>